# xmcd
#
# Track frame offsets:
#	150
#	17065
#	39442
#	60685
#	77712
#	99472
#	124574
#	141378
#	161729
#	176788
#	203177
#
# Disc length: 3020 seconds
#
# Revision: 1
# Processed by: cddbd v1.4PL0 Copyright (c) Steve Scherf et al.
# Submitted via: audiograbber 1.81.03
#
DISCID=940bca0b
DTITLE=Jo Jo Blues - Somewhere In Long Beach
DYEAR=2002
DGENRE=Blues
TTITLE0=Next Time You Sue Me
TTITLE1=Knee to the Highway
TTITLE2=T-Bone Shuffle
TTITLE3=Don't Touch Me Baby
TTITLE4=Think It Over
TTITLE5=Peace on Earth
TTITLE6=SUM Goatee
TTITLE7=Cross Eyed Cat
TTITLE8=Hard Life Blues
TTITLE9=Walking Blues
TTITLE10=Born In Chicago
EXTD=
EXTT0=
EXTT1=
EXTT2=
EXTT3=
EXTT4=
EXTT5=
EXTT6=
EXTT7=
EXTT8=
EXTT9=
EXTT10=
PLAYORDER=
